<?xml version="1.0" encoding="UTF-8"?>
<svg id="Layer_2" data-name="Layer 2" xmlns="http://www.w3.org/2000/svg" viewBox="-25 -60 490 380">
  <defs>
    <style>
      .cls-1 {
        fill: #231f20;
      }

      .cls-2 {
        fill: #7d9e7e;
      }
    </style>
  </defs>
  <g id="Layer_1-2" data-name="Layer 1">
    <g>
      <g>
        <path d="M205.89,153.6c2.57,0,4.98-.36,7.22-1.07,2.24-.72,4.08-1.5,5.51-2.36,1.81-1.14,3.12-2.5,3.93-4.08.81-1.57,1.55-3.55,2.22-5.94l3.29-12.59c1.05-3.91,1.45-13.97,1.22-15.88-.24-1.91-1.24-3.8-3.1-4.47-1.86-.67-4.79-1.05-8.8-1.14l.67-5.82c1.91.1,4.17.17,6.79.21,2.62.05,5.36.1,8.22.14,2.86.05,5.48.23,7.87.23,3.81,0,7.32-.2,10.51-.3,3.19-.09,15.45-.01,17.55-.11l-3.78,5.64c-2.1.1-7.79-.12-11.43,1-2.57.79-2.24,2.32-3.05,4.04-.81,1.72-1.69,11.49-2.65,15.02l-7.58,28.32h-2.86c.29-2.19.19-4.1-.29-5.72-.48-1.62-1.48-2.43-3-2.43-1.43,0-2.91.38-4.43,1.14-1.53.76-3.34,1.67-5.44,2.72-3.62,2.1-7.18,3.67-10.66,4.72-3.48,1.05-7.22,1.57-11.23,1.57-12.21,0-21.62-2.86-28.25-8.58-6.63-5.72-9.94-13.78-9.94-24.17,0-6.48,1.02-13.11,3.08-19.88,2.05-6.77,5.03-13.3,8.94-19.6,3.91-6.29,8.58-11.92,14.02-16.88,5.44-4.96,11.59-8.89,18.45-11.8,6.87-2.91,14.25-4.36,22.17-4.36,6.2,0,10.99.91,14.37,2.72,3.38,1.81,6.41,4.01,9.08,6.58,1.43,1.43,2.76,1.67,4,.72,1.24-.95,2.62-3.62,4.15-8.01h3.15c-1.43,3.72-2.91,8.22-4.43,13.52-1.53,5.29-3.1,11.75-4.72,19.38h-3.15c.19-1.91.36-3.74.5-5.51.14-1.76.21-3.5.21-5.22,0-2-.14-3.84-.43-5.51-.29-1.67-.81-3.31-1.57-4.93-1.91-3.53-4.79-6.27-8.65-8.22-3.86-1.95-8.32-2.93-13.37-2.93-6.01,0-11.47,1.69-16.38,5.08-4.91,3.39-9.23,7.87-12.94,13.45-3.72,5.58-6.82,11.68-9.3,18.31-2.48,6.63-4.36,13.26-5.65,19.88-1.29,6.63-1.93,12.61-1.93,17.95,0,8.58,1.81,14.92,5.44,19.02,3.62,4.1,9.1,6.15,16.45,6.15Z"/>
        <g>
          <path d="M135.86,144.73l1.13-5.64c5.64.75,11.1,2.4,16.36,4.94,5.26,2.54,9.59,6.02,12.98,10.44,3.39,4.42,5.08,10.2,5.08,17.35,0,10.35-3.48,18.9-10.44,25.67-6.96,6.77-16.36,10.16-28.21,10.16-7.71,0-14.44-1.32-20.17-3.95-5.74-2.63-11.19-5.78-16.36-9.45-5.18-3.67-10.58-6.81-16.22-9.45-5.64-2.63-12.23-3.95-19.75-3.95-6.4,0-12.09.85-17.07,2.54-4.99,1.69-10.58,3.95-16.79,6.77-4.14,6.02-8.65,10.63-13.54,13.82-4.89,3.2-8.65,3.57-11.28,1.13-2.26-2.07-2.07-5.17.56-9.31,2.64-4.14,8.93-8.08,18.9-11.85L184.66,23.13c-8.65,6.77-17.59,12.13-26.8,16.08-9.22,3.95-18.43,5.92-27.65,5.92-6.59,0-12.41-.71-17.49-2.12-5.08-1.41-9.83-2.96-14.25-4.65-4.42-1.69-8.84-3.24-13.26-4.66-4.42-1.41-9.17-2.12-14.25-2.12-4.7,0-8.32,1.18-10.86,3.53-2.54,2.35-3.81,5.78-3.81,10.3s1.69,8,5.08,11c3.39,3.01,8.46,5.18,15.24,6.49l-1.13,5.64c-5.46-.94-10.86-2.63-16.22-5.08-5.36-2.44-9.73-5.93-13.12-10.44-3.39-4.51-5.08-10.25-5.08-17.21,0-10.34,3.48-18.9,10.44-25.67C58.45,3.39,67.86,0,79.71,0c7.71,0,14.43,1.32,20.17,3.95,5.74,2.64,11.19,5.78,16.36,9.45,5.17,3.67,10.58,6.82,16.22,9.45,5.64,2.64,12.22,3.95,19.75,3.95,6.39,0,12.13-.85,17.21-2.54,5.08-1.69,10.62-3.95,16.65-6.77,4.32-6.02,8.84-10.62,13.54-13.82,4.7-3.2,8.46-3.57,11.29-1.13,2.26,1.88,2.07,4.94-.56,9.17-2.64,4.23-8.94,8.23-18.9,11.99L27.8,184.51c8.65-6.77,17.63-12.13,26.94-16.08,9.31-3.95,18.48-5.92,27.51-5.92,6.58,0,12.41.7,17.49,2.12,5.08,1.41,9.83,2.96,14.25,4.65,4.42,1.69,8.84,3.25,13.26,4.66,4.42,1.41,9.17,2.12,14.25,2.12s8.56-1.17,11-3.53c2.44-2.35,3.67-5.78,3.67-10.3s-1.65-7.99-4.94-11c-3.29-3.01-8.42-5.17-15.38-6.49ZM54.6,106.08l1.97-5.64h99.59l-2.26,5.64H54.6Z"/>
          <path d="M135.86,144.73l1.13-5.64c5.64.75,11.1,2.4,16.36,4.94,5.26,2.54,9.59,6.02,12.98,10.44,3.39,4.42,5.08,10.2,5.08,17.35,0,10.35-3.48,18.9-10.44,25.67-6.96,6.77-16.36,10.16-28.21,10.16-7.71,0-14.44-1.32-20.17-3.95-5.74-2.63-11.19-5.78-16.36-9.45-5.18-3.67-10.58-6.81-16.22-9.45-5.64-2.63-12.23-3.95-19.75-3.95-6.4,0-12.09.85-17.07,2.54-4.99,1.69-10.58,3.95-16.79,6.77-4.14,6.02-8.65,10.63-13.54,13.82-4.89,3.2-8.65,3.57-11.28,1.13-2.26-2.07-2.07-5.17.56-9.31,2.64-4.14,8.93-8.08,18.9-11.85L184.66,23.13c-8.65,6.77-17.59,12.13-26.8,16.08-9.22,3.95-18.43,5.92-27.65,5.92-6.59,0-12.41-.71-17.49-2.12-5.08-1.41-9.83-2.96-14.25-4.65-4.42-1.69-8.84-3.24-13.26-4.66-4.42-1.41-9.17-2.12-14.25-2.12-4.7,0-8.32,1.18-10.86,3.53-2.54,2.35-3.81,5.78-3.81,10.3s1.69,8,5.08,11c3.39,3.01,8.46,5.18,15.24,6.49l-1.13,5.64c-5.46-.94-10.86-2.63-16.22-5.08-5.36-2.44-9.73-5.93-13.12-10.44-3.39-4.51-5.08-10.25-5.08-17.21,0-10.34,3.48-18.9,10.44-25.67C58.45,3.39,67.86,0,79.71,0c7.71,0,14.43,1.32,20.17,3.95,5.74,2.64,11.19,5.78,16.36,9.45,5.17,3.67,10.58,6.82,16.22,9.45,5.64,2.64,12.22,3.95,19.75,3.95,6.39,0,12.13-.85,17.21-2.54,5.08-1.69,10.62-3.95,16.65-6.77,4.32-6.02,8.84-10.62,13.54-13.82,4.7-3.2,8.46-3.57,11.29-1.13,2.26,1.88,2.07,4.94-.56,9.17-2.64,4.23-8.94,8.23-18.9,11.99L27.8,184.51c8.65-6.77,17.63-12.13,26.94-16.08,9.31-3.95,18.48-5.92,27.51-5.92,6.58,0,12.41.7,17.49,2.12,5.08,1.41,9.83,2.96,14.25,4.65,4.42,1.69,8.84,3.25,13.26,4.66,4.42,1.41,9.17,2.12,14.25,2.12s8.56-1.17,11-3.53c2.44-2.35,3.67-5.78,3.67-10.3s-1.65-7.99-4.94-11c-3.29-3.01-8.42-5.17-15.38-6.49ZM54.6,106.08l1.97-5.64h119.59l-2.26,5.64H54.6Z"/>
          <path d="M279.01,151.22c-3.29,3.01-4.94,6.68-4.94,11s1.23,7.95,3.67,10.3c2.45,2.35,6.11,3.53,11,3.53,5.08,0,9.83-.71,14.25-2.12,4.42-1.41,8.84-2.96,13.26-4.66,4.42-1.69,9.17-3.24,14.25-4.65,5.08-1.41,10.91-2.12,17.49-2.12,9.03,0,18.2,1.97,27.51,5.92,9.31,3.95,18.29,9.31,26.94,16.08L238.81,23.7c-9.97-3.76-16.27-7.76-18.9-11.99-2.63-4.23-2.82-7.29-.56-9.17,2.82-2.44,6.59-2.07,11.29,1.13,4.7,3.2,9.22,7.81,13.54,13.82,6.02,2.82,11.57,5.08,16.65,6.77,5.08,1.69,10.82,2.54,17.21,2.54,7.53,0,14.11-1.31,19.75-3.95,5.64-2.63,11.05-5.78,16.22-9.45,5.18-3.67,10.63-6.82,16.36-9.45C336.1,1.32,342.82,0,350.53,0c11.85,0,21.26,3.39,28.21,10.16,6.96,6.77,10.44,15.33,10.44,25.67,0,6.96-1.69,12.7-5.08,17.21-3.39,4.51-7.76,8-13.12,10.44-5.36,2.45-10.77,4.14-16.22,5.08l-1.13-5.64c6.77-1.31,11.85-3.48,15.24-6.49,3.39-3.01,5.08-6.67,5.08-11s-1.27-7.94-3.81-10.3c-2.54-2.35-6.16-3.53-10.86-3.53-5.08,0-9.83.71-14.25,2.12-4.42,1.41-8.84,2.96-13.26,4.66-4.42,1.69-9.17,3.24-14.25,4.65-5.08,1.41-10.91,2.12-17.49,2.12-9.21,0-18.43-1.97-27.65-5.92-9.21-3.95-18.15-9.31-26.8-16.08l163.64,160.81c9.97,3.76,16.27,7.71,18.9,11.85,2.63,4.14,2.82,7.24.56,9.31-2.64,2.44-6.4,2.07-11.28-1.13-4.89-3.19-9.4-7.8-13.54-13.82-6.21-2.82-11.8-5.08-16.79-6.77-4.98-1.69-10.67-2.54-17.07-2.54-7.52,0-14.11,1.32-19.75,3.95-5.64,2.64-11.05,5.78-16.22,9.45-5.17,3.67-10.62,6.82-16.36,9.45-5.74,2.63-12.46,3.95-20.17,3.95-11.85,0-21.25-3.39-28.21-10.16-6.96-6.77-10.44-15.33-10.44-25.67,0-7.15,1.69-12.93,5.08-17.35,3.39-4.42,7.71-7.9,12.98-10.44,5.27-2.54,10.72-4.18,16.36-4.94l1.13,5.64c-6.96,1.32-12.08,3.48-15.38,6.49ZM264.33,106.08l-2.26-5.64h111.59s1.97,5.64,1.97,5.64h-111.31Z"/>
        </g>
      </g>
      <g>
        <path class="cls-2" d="M202.6,206.46c-7.59,0-14.79-.67-21.59-2h-.32v-.06c-15.02-2.99-28.09-9.24-39.02-18.67-17.58-15.17-27.27-37.2-27.27-62.02,0-11.37,1.76-22.94,5.22-34.38,3.31-10.92,8.13-21.52,14.32-31.49,6.31-10.16,13.98-19.39,22.79-27.42,9.6-8.76,20.58-15.79,32.64-20.9,13.05-5.53,27.07-8.33,41.68-8.33,7.11,0,13.69.66,19.81,2h87.74l-17.23,44.79,44.29-2.03-72.97,108.91-.56.03-13.27,49.56h-57.21c-6.17,1.33-12.55,2-19.07,2Z"/>
        <g>
          <path class="cls-2" d="M132.75,257.65c-14.93,0-28.73-2.86-41.03-8.51-8.52-3.91-16.75-8.66-24.44-14.11-2.25-1.59-4.53-2.97-6.92-4.18-.04,0-.08,0-.13,0-.76,0-1.26.04-1.53.07-.49.17-1,.35-1.52.55-5.24,5.6-10.93,10.41-17,14.38-11.01,7.2-22.65,10.86-34.57,10.86-14.13,0-27.63-5.28-38-14.87-12.14-11.21-18.52-27.1-17.52-43.62.61-10.1,3.92-19.94,9.83-29.23,7.62-11.95,18.33-19.79,28.49-25.17l20.18-57.64c-.84-1.02-1.66-2.06-2.46-3.12-9.87-13.16-15.08-29.48-15.08-47.22C-8.94,11.86-.1-9.41,16.63-25.68c11.39-11.09,31.59-24.32,63.08-24.32,14.92,0,28.72,2.86,41.02,8.5,8.56,3.94,16.77,8.67,24.43,14.1,2.24,1.59,4.56,2.99,6.93,4.2.04,0,.08,0,.13,0,.94,0,1.51-.06,1.75-.09.46-.16.93-.32,1.42-.5,5.06-5.38,10.44-10.03,16.09-13.88,11.11-7.56,22.96-11.38,35.22-11.38,13.38,0,26.33,4.78,36.54,13.46,21.38,18.1,25.32,48.34,9.55,73.71-7.45,11.96-17.92,19.85-27.96,25.29l-22.48,56.19c1.26,1.44,2.48,2.92,3.65,4.45,10.08,13.16,15.4,29.67,15.4,47.77,0,23.96-8.84,45.23-25.56,61.5-11.41,11.1-31.61,24.33-63.09,24.33Z"/>
          <path class="cls-2" d="M132.75,257.65c-14.93,0-28.73-2.86-41.03-8.51-8.52-3.91-16.75-8.66-24.44-14.11-2.25-1.59-4.53-2.97-6.92-4.18-.04,0-.08,0-.13,0-.76,0-1.26.04-1.53.07-.49.17-1,.35-1.52.55-5.24,5.6-10.93,10.41-17,14.38-11.01,7.2-22.65,10.86-34.57,10.86-14.13,0-27.63-5.28-38-14.87-12.14-11.21-18.52-27.1-17.52-43.62.61-10.1,3.92-19.94,9.83-29.23,7.62-11.95,18.33-19.79,28.49-25.17l20.18-57.64c-.84-1.02-1.66-2.06-2.46-3.12-9.87-13.16-15.08-29.48-15.08-47.22C-8.94,11.86-.1-9.41,16.63-25.68c11.39-11.09,31.59-24.32,63.08-24.32,14.92,0,28.72,2.86,41.02,8.5,8.56,3.94,16.77,8.67,24.43,14.1,2.24,1.59,4.56,2.99,6.93,4.2.04,0,.08,0,.13,0,.94,0,1.51-.06,1.75-.09.46-.16.93-.32,1.42-.5,5.06-5.38,10.44-10.03,16.09-13.88,11.11-7.56,22.96-11.38,35.22-11.38,13.38,0,26.33,4.78,36.54,13.46,21.38,18.1,25.32,48.34,9.55,73.71-2.93,4.7-6.33,8.78-9.98,12.32h7.21l-35.33,88.31c4.42,10.01,6.71,21.2,6.71,33.07,0,23.96-8.84,45.23-25.56,61.5-11.41,11.1-31.61,24.33-63.09,24.33Z"/>
          <path class="cls-2" d="M297.49,257.65c-31.48,0-51.68-13.23-63.08-24.32-16.73-16.29-25.57-37.55-25.57-61.51,0-15.43,3.87-29.71,11.24-41.73l-31.37-78.44c-4.14-3.81-7.98-8.27-11.24-13.51-5.75-9.25-8.97-18.94-9.58-28.82-1.07-17.36,5.88-33.7,19.09-44.89,10.21-8.7,23.18-13.48,36.57-13.48,12.26,0,24.11,3.83,35.2,11.37,5.67,3.86,11.05,8.5,16.11,13.89.48.18.96.34,1.42.5.24.03.81.09,1.75.09.04,0,.09,0,.13,0,2.38-1.21,4.69-2.61,6.92-4.18,7.68-5.44,15.88-10.18,24.41-14.1,12.34-5.66,26.14-8.52,41.06-8.52,31.49,0,51.69,13.23,63.09,24.33,16.72,16.26,25.56,37.53,25.56,61.5,0,17.73-5.21,34.06-15.08,47.21-.8,1.06-1.62,2.11-2.46,3.13l20.17,57.63c10.16,5.37,20.86,13.2,28.46,25.12,5.94,9.35,9.25,19.18,9.86,29.29,1,16.56-5.41,32.48-17.59,43.69-10.36,9.55-23.82,14.8-37.92,14.8-11.92,0-23.56-3.66-34.59-10.87-6.07-3.96-11.75-8.77-16.99-14.37-.52-.19-1.03-.37-1.52-.54-.26-.03-.76-.07-1.53-.07-.04,0-.09,0-.13,0-2.38,1.2-4.66,2.59-6.93,4.19-7.67,5.44-15.9,10.19-24.44,14.11-12.28,5.64-26.09,8.5-41.01,8.5Z"/>
        </g>
      </g>
      <g>
        <path class="cls-1" d="M205.89,153.6c2.57,0,4.98-.36,7.22-1.07,2.24-.72,4.08-1.5,5.51-2.36,1.81-1.14,3.12-2.5,3.93-4.08.81-1.57,1.55-3.55,2.22-5.94l3.29-12.59c1.05-3.91,1.45-13.97,1.22-15.88-.24-1.91-1.24-3.8-3.1-4.47-1.86-.67-4.79-1.05-8.8-1.14l.67-5.82c1.91.1,4.17.17,6.79.21,2.62.05,5.36.1,8.22.14,2.86.05,5.48.23,7.87.23,3.81,0,7.32-.2,10.51-.3,3.19-.09,15.45-.01,17.55-.11l-3.78,5.64c-2.1.1-7.79-.12-11.43,1-2.57.79-2.24,2.32-3.05,4.04-.81,1.72-1.69,11.49-2.65,15.02l-7.58,28.32h-2.86c.29-2.19.19-4.1-.29-5.72-.48-1.62-1.48-2.43-3-2.43-1.43,0-2.91.38-4.43,1.14-1.53.76-3.34,1.67-5.44,2.72-3.62,2.1-7.18,3.67-10.66,4.72-3.48,1.05-7.22,1.57-11.23,1.57-12.21,0-21.62-2.86-28.25-8.58-6.63-5.72-9.94-13.78-9.94-24.17,0-6.48,1.02-13.11,3.08-19.88,2.05-6.77,5.03-13.3,8.94-19.6,3.91-6.29,8.58-11.92,14.02-16.88,5.44-4.96,11.59-8.89,18.45-11.8,6.87-2.91,14.25-4.36,22.17-4.36,6.2,0,10.99.91,14.37,2.72,3.38,1.81,6.41,4.01,9.08,6.58,1.43,1.43,2.76,1.67,4,.72,1.24-.95,2.62-3.62,4.15-8.01h3.15c-1.43,3.72-2.91,8.22-4.43,13.52-1.53,5.29-3.1,11.75-4.72,19.38h-3.15c.19-1.91.36-3.74.5-5.51.14-1.76.21-3.5.21-5.22,0-2-.14-3.84-.43-5.51-.29-1.67-.81-3.31-1.57-4.93-1.91-3.53-4.79-6.27-8.65-8.22-3.86-1.95-8.32-2.93-13.37-2.93-6.01,0-11.47,1.69-16.38,5.08-4.91,3.39-9.23,7.87-12.94,13.45-3.72,5.58-6.82,11.68-9.3,18.31-2.48,6.63-4.36,13.26-5.65,19.88-1.29,6.63-1.93,12.61-1.93,17.95,0,8.58,1.81,14.92,5.44,19.02,3.62,4.1,9.1,6.15,16.45,6.15Z"/>
        <g>
          <path class="cls-1" d="M135.86,144.73l1.13-5.64c5.64.75,11.1,2.4,16.36,4.94,5.26,2.54,9.59,6.02,12.98,10.44,3.39,4.42,5.08,10.2,5.08,17.35,0,10.35-3.48,18.9-10.44,25.67-6.96,6.77-16.36,10.16-28.21,10.16-7.71,0-14.44-1.32-20.17-3.95-5.74-2.63-11.19-5.78-16.36-9.45-5.18-3.67-10.58-6.81-16.22-9.45-5.64-2.63-12.23-3.95-19.75-3.95-6.4,0-12.09.85-17.07,2.54-4.99,1.69-10.58,3.95-16.79,6.77-4.14,6.02-8.65,10.63-13.54,13.82-4.89,3.2-8.65,3.57-11.28,1.13-2.26-2.07-2.07-5.17.56-9.31,2.64-4.14,8.93-8.08,18.9-11.85L184.66,23.13c-8.65,6.77-17.59,12.13-26.8,16.08-9.22,3.95-18.43,5.92-27.65,5.92-6.59,0-12.41-.71-17.49-2.12-5.08-1.41-9.83-2.96-14.25-4.65-4.42-1.69-8.84-3.24-13.26-4.66-4.42-1.41-9.17-2.12-14.25-2.12-4.7,0-8.32,1.18-10.86,3.53-2.54,2.35-3.81,5.78-3.81,10.3s1.69,8,5.08,11c3.39,3.01,8.46,5.18,15.24,6.49l-1.13,5.64c-5.46-.94-10.86-2.63-16.22-5.08-5.36-2.44-9.73-5.93-13.12-10.44-3.39-4.51-5.08-10.25-5.08-17.21,0-10.34,3.48-18.9,10.44-25.67C58.45,3.39,67.86,0,79.71,0c7.71,0,14.43,1.32,20.17,3.95,5.74,2.64,11.19,5.78,16.36,9.45,5.17,3.67,10.58,6.82,16.22,9.45,5.64,2.64,12.22,3.95,19.75,3.95,6.39,0,12.13-.85,17.21-2.54,5.08-1.69,10.62-3.95,16.65-6.77,4.32-6.02,8.84-10.62,13.54-13.82,4.7-3.2,8.46-3.57,11.29-1.13,2.26,1.88,2.07,4.94-.56,9.17-2.64,4.23-8.94,8.23-18.9,11.99L27.8,184.51c8.65-6.77,17.63-12.13,26.94-16.08,9.31-3.95,18.48-5.92,27.51-5.92,6.58,0,12.41.7,17.49,2.12,5.08,1.41,9.83,2.96,14.25,4.65,4.42,1.69,8.84,3.25,13.26,4.66,4.42,1.41,9.17,2.12,14.25,2.12s8.56-1.17,11-3.53c2.44-2.35,3.67-5.78,3.67-10.3s-1.65-7.99-4.94-11c-3.29-3.01-8.42-5.17-15.38-6.49ZM54.6,106.08l1.97-5.64h99.59l-2.26,5.64H54.6Z"/>
          <path class="cls-1" d="M135.86,144.73l1.13-5.64c5.64.75,11.1,2.4,16.36,4.94,5.26,2.54,9.59,6.02,12.98,10.44,3.39,4.42,5.08,10.2,5.08,17.35,0,10.35-3.48,18.9-10.44,25.67-6.96,6.77-16.36,10.16-28.21,10.16-7.71,0-14.44-1.32-20.17-3.95-5.74-2.63-11.19-5.78-16.36-9.45-5.18-3.67-10.58-6.81-16.22-9.45-5.64-2.63-12.23-3.95-19.75-3.95-6.4,0-12.09.85-17.07,2.54-4.99,1.69-10.58,3.95-16.79,6.77-4.14,6.02-8.65,10.63-13.54,13.82-4.89,3.2-8.65,3.57-11.28,1.13-2.26-2.07-2.07-5.17.56-9.31,2.64-4.14,8.93-8.08,18.9-11.85L184.66,23.13c-8.65,6.77-17.59,12.13-26.8,16.08-9.22,3.95-18.43,5.92-27.65,5.92-6.59,0-12.41-.71-17.49-2.12-5.08-1.41-9.83-2.96-14.25-4.65-4.42-1.69-8.84-3.24-13.26-4.66-4.42-1.41-9.17-2.12-14.25-2.12-4.7,0-8.32,1.18-10.86,3.53-2.54,2.35-3.81,5.78-3.81,10.3s1.69,8,5.08,11c3.39,3.01,8.46,5.18,15.24,6.49l-1.13,5.64c-5.46-.94-10.86-2.63-16.22-5.08-5.36-2.44-9.73-5.93-13.12-10.44-3.39-4.51-5.08-10.25-5.08-17.21,0-10.34,3.48-18.9,10.44-25.67C58.45,3.39,67.86,0,79.71,0c7.71,0,14.43,1.32,20.17,3.95,5.74,2.64,11.19,5.78,16.36,9.45,5.17,3.67,10.58,6.82,16.22,9.45,5.64,2.64,12.22,3.95,19.75,3.95,6.39,0,12.13-.85,17.21-2.54,5.08-1.69,10.62-3.95,16.65-6.77,4.32-6.02,8.84-10.62,13.54-13.82,4.7-3.2,8.46-3.57,11.29-1.13,2.26,1.88,2.07,4.94-.56,9.17-2.64,4.23-8.94,8.23-18.9,11.99L27.8,184.51c8.65-6.77,17.63-12.13,26.94-16.08,9.31-3.95,18.48-5.92,27.51-5.92,6.58,0,12.41.7,17.49,2.12,5.08,1.41,9.83,2.96,14.25,4.65,4.42,1.69,8.84,3.25,13.26,4.66,4.42,1.41,9.17,2.12,14.25,2.12s8.56-1.17,11-3.53c2.44-2.35,3.67-5.78,3.67-10.3s-1.65-7.99-4.94-11c-3.29-3.01-8.42-5.17-15.38-6.49ZM54.6,106.08l1.97-5.64h119.59l-2.26,5.64H54.6Z"/>
          <path class="cls-1" d="M279.01,151.22c-3.29,3.01-4.94,6.68-4.94,11s1.23,7.95,3.67,10.3c2.45,2.35,6.11,3.53,11,3.53,5.08,0,9.83-.71,14.25-2.12,4.42-1.41,8.84-2.96,13.26-4.66,4.42-1.69,9.17-3.24,14.25-4.65,5.08-1.41,10.91-2.12,17.49-2.12,9.03,0,18.2,1.97,27.51,5.92,9.31,3.95,18.29,9.31,26.94,16.08L238.81,23.7c-9.97-3.76-16.27-7.76-18.9-11.99-2.63-4.23-2.82-7.29-.56-9.17,2.82-2.44,6.59-2.07,11.29,1.13,4.7,3.2,9.22,7.81,13.54,13.82,6.02,2.82,11.57,5.08,16.65,6.77,5.08,1.69,10.82,2.54,17.21,2.54,7.53,0,14.11-1.31,19.75-3.95,5.64-2.63,11.05-5.78,16.22-9.45,5.18-3.67,10.63-6.82,16.36-9.45C336.1,1.32,342.82,0,350.53,0c11.85,0,21.26,3.39,28.21,10.16,6.96,6.77,10.44,15.33,10.44,25.67,0,6.96-1.69,12.7-5.08,17.21-3.39,4.51-7.76,8-13.12,10.44-5.36,2.45-10.77,4.14-16.22,5.08l-1.13-5.64c6.77-1.31,11.85-3.48,15.24-6.49,3.39-3.01,5.08-6.67,5.08-11s-1.27-7.94-3.81-10.3c-2.54-2.35-6.16-3.53-10.86-3.53-5.08,0-9.83.71-14.25,2.12-4.42,1.41-8.84,2.96-13.26,4.66-4.42,1.69-9.17,3.24-14.25,4.65-5.08,1.41-10.91,2.12-17.49,2.12-9.21,0-18.43-1.97-27.65-5.92-9.21-3.95-18.15-9.31-26.8-16.08l163.64,160.81c9.97,3.76,16.27,7.71,18.9,11.85,2.63,4.14,2.82,7.24.56,9.31-2.64,2.44-6.4,2.07-11.28-1.13-4.89-3.19-9.4-7.8-13.54-13.82-6.21-2.82-11.8-5.08-16.79-6.77-4.98-1.69-10.67-2.54-17.07-2.54-7.52,0-14.11,1.32-19.75,3.95-5.64,2.64-11.05,5.78-16.22,9.45-5.17,3.67-10.62,6.82-16.36,9.45-5.74,2.63-12.46,3.95-20.17,3.95-11.85,0-21.25-3.39-28.21-10.16-6.96-6.77-10.44-15.33-10.44-25.67,0-7.15,1.69-12.93,5.08-17.35,3.39-4.42,7.71-7.9,12.98-10.44,5.27-2.54,10.72-4.18,16.36-4.94l1.13,5.64c-6.96,1.32-12.08,3.48-15.38,6.49ZM264.33,106.08l-2.26-5.64h111.59s1.97,5.64,1.97,5.64h-111.31Z"/>
        </g>
      </g>
    </g>
  </g>
</svg>